<mxfile host="app.diagrams.net" modified="2021-10-27T20:28:38.100Z" agent="5.0 (Windows)" etag="mtVU-MHOMudC8-r0suFn" version="15.5.4" type="github">
  <diagram id="oY3GjhQQyMGQd7_ZlnSu" name="Page-1">
    <mxGraphModel dx="1807" dy="535" grid="1" gridSize="10" guides="1" tooltips="1" connect="1" arrows="1" fold="1" page="1" pageScale="1" pageWidth="827" pageHeight="1169" math="0" shadow="0">
      <root>
        <mxCell id="0" />
        <mxCell id="1" parent="0" />
        <mxCell id="DcD1u5HGrlThoaI2c_yx-1" value="ESCUDERIA" style="rounded=0;whiteSpace=wrap;html=1;" vertex="1" parent="1">
          <mxGeometry x="250" y="420" width="120" height="60" as="geometry" />
        </mxCell>
        <mxCell id="DcD1u5HGrlThoaI2c_yx-37" style="edgeStyle=none;rounded=0;orthogonalLoop=1;jettySize=auto;html=1;exitX=0.5;exitY=0;exitDx=0;exitDy=0;entryX=0.5;entryY=1;entryDx=0;entryDy=0;endArrow=none;endFill=0;" edge="1" parent="1" source="DcD1u5HGrlThoaI2c_yx-2" target="DcD1u5HGrlThoaI2c_yx-25">
          <mxGeometry relative="1" as="geometry" />
        </mxCell>
        <mxCell id="DcD1u5HGrlThoaI2c_yx-39" style="edgeStyle=none;rounded=0;orthogonalLoop=1;jettySize=auto;html=1;entryX=0.5;entryY=1;entryDx=0;entryDy=0;endArrow=none;endFill=0;" edge="1" parent="1" target="DcD1u5HGrlThoaI2c_yx-24">
          <mxGeometry relative="1" as="geometry">
            <mxPoint x="310" y="200" as="sourcePoint" />
          </mxGeometry>
        </mxCell>
        <mxCell id="DcD1u5HGrlThoaI2c_yx-2" value="PAIS" style="rounded=0;whiteSpace=wrap;html=1;glass=0;" vertex="1" parent="1">
          <mxGeometry x="250" y="200" width="120" height="60" as="geometry" />
        </mxCell>
        <mxCell id="DcD1u5HGrlThoaI2c_yx-3" value="PATROCINADOR" style="rounded=0;whiteSpace=wrap;html=1;" vertex="1" parent="1">
          <mxGeometry x="530" y="420" width="120" height="60" as="geometry" />
        </mxCell>
        <mxCell id="DcD1u5HGrlThoaI2c_yx-9" style="edgeStyle=orthogonalEdgeStyle;rounded=0;orthogonalLoop=1;jettySize=auto;html=1;exitX=0;exitY=0.5;exitDx=0;exitDy=0;entryX=1;entryY=0.5;entryDx=0;entryDy=0;endArrow=doubleBlock;endFill=1;" edge="1" parent="1" source="DcD1u5HGrlThoaI2c_yx-4" target="DcD1u5HGrlThoaI2c_yx-1">
          <mxGeometry relative="1" as="geometry" />
        </mxCell>
        <mxCell id="DcD1u5HGrlThoaI2c_yx-10" style="edgeStyle=orthogonalEdgeStyle;rounded=0;orthogonalLoop=1;jettySize=auto;html=1;exitX=1;exitY=0.5;exitDx=0;exitDy=0;endArrow=doubleBlock;endFill=1;" edge="1" parent="1" source="DcD1u5HGrlThoaI2c_yx-4" target="DcD1u5HGrlThoaI2c_yx-3">
          <mxGeometry relative="1" as="geometry" />
        </mxCell>
        <mxCell id="DcD1u5HGrlThoaI2c_yx-4" value="Patrocina" style="rhombus;whiteSpace=wrap;html=1;" vertex="1" parent="1">
          <mxGeometry x="410" y="430" width="80" height="40" as="geometry" />
        </mxCell>
        <mxCell id="DcD1u5HGrlThoaI2c_yx-6" style="edgeStyle=orthogonalEdgeStyle;rounded=0;orthogonalLoop=1;jettySize=auto;html=1;exitX=0.5;exitY=1;exitDx=0;exitDy=0;" edge="1" parent="1" source="DcD1u5HGrlThoaI2c_yx-5" target="DcD1u5HGrlThoaI2c_yx-1">
          <mxGeometry relative="1" as="geometry" />
        </mxCell>
        <mxCell id="DcD1u5HGrlThoaI2c_yx-7" style="edgeStyle=orthogonalEdgeStyle;rounded=0;orthogonalLoop=1;jettySize=auto;html=1;exitX=0.5;exitY=0;exitDx=0;exitDy=0;" edge="1" parent="1" source="DcD1u5HGrlThoaI2c_yx-5" target="DcD1u5HGrlThoaI2c_yx-2">
          <mxGeometry relative="1" as="geometry" />
        </mxCell>
        <mxCell id="DcD1u5HGrlThoaI2c_yx-5" value="Pertany" style="rhombus;whiteSpace=wrap;html=1;" vertex="1" parent="1">
          <mxGeometry x="270" y="320" width="80" height="40" as="geometry" />
        </mxCell>
        <mxCell id="DcD1u5HGrlThoaI2c_yx-13" value="(1:N)" style="text;html=1;align=center;verticalAlign=middle;resizable=0;points=[];autosize=1;strokeColor=none;fillColor=none;" vertex="1" parent="1">
          <mxGeometry x="370" y="450" width="40" height="20" as="geometry" />
        </mxCell>
        <mxCell id="DcD1u5HGrlThoaI2c_yx-14" value="(1:M)" style="text;html=1;align=center;verticalAlign=middle;resizable=0;points=[];autosize=1;strokeColor=none;fillColor=none;" vertex="1" parent="1">
          <mxGeometry x="490" y="450" width="40" height="20" as="geometry" />
        </mxCell>
        <mxCell id="DcD1u5HGrlThoaI2c_yx-15" value="N:M" style="text;html=1;align=center;verticalAlign=middle;resizable=0;points=[];autosize=1;strokeColor=none;fillColor=none;" vertex="1" parent="1">
          <mxGeometry x="430" y="410" width="40" height="20" as="geometry" />
        </mxCell>
        <mxCell id="DcD1u5HGrlThoaI2c_yx-16" value="1:N" style="text;html=1;align=center;verticalAlign=middle;resizable=0;points=[];autosize=1;strokeColor=none;fillColor=none;" vertex="1" parent="1">
          <mxGeometry x="240" y="330" width="30" height="20" as="geometry" />
        </mxCell>
        <mxCell id="DcD1u5HGrlThoaI2c_yx-17" value="(1:1)" style="text;html=1;align=center;verticalAlign=middle;resizable=0;points=[];autosize=1;strokeColor=none;fillColor=none;" vertex="1" parent="1">
          <mxGeometry x="270" y="260" width="40" height="20" as="geometry" />
        </mxCell>
        <mxCell id="DcD1u5HGrlThoaI2c_yx-18" value="(1:N)" style="text;html=1;align=center;verticalAlign=middle;resizable=0;points=[];autosize=1;strokeColor=none;fillColor=none;" vertex="1" parent="1">
          <mxGeometry x="270" y="400" width="40" height="20" as="geometry" />
        </mxCell>
        <mxCell id="DcD1u5HGrlThoaI2c_yx-30" style="edgeStyle=none;rounded=0;orthogonalLoop=1;jettySize=auto;html=1;exitX=0.5;exitY=0;exitDx=0;exitDy=0;entryX=0.5;entryY=1;entryDx=0;entryDy=0;endArrow=none;endFill=0;" edge="1" parent="1" source="DcD1u5HGrlThoaI2c_yx-19" target="DcD1u5HGrlThoaI2c_yx-1">
          <mxGeometry relative="1" as="geometry" />
        </mxCell>
        <mxCell id="DcD1u5HGrlThoaI2c_yx-19" value="logo" style="ellipse;whiteSpace=wrap;html=1;" vertex="1" parent="1">
          <mxGeometry x="240" y="510" width="40" height="30" as="geometry" />
        </mxCell>
        <mxCell id="DcD1u5HGrlThoaI2c_yx-31" style="edgeStyle=none;rounded=0;orthogonalLoop=1;jettySize=auto;html=1;exitX=0.5;exitY=0;exitDx=0;exitDy=0;entryX=0.5;entryY=1;entryDx=0;entryDy=0;endArrow=none;endFill=0;" edge="1" parent="1" source="DcD1u5HGrlThoaI2c_yx-20" target="DcD1u5HGrlThoaI2c_yx-1">
          <mxGeometry relative="1" as="geometry" />
        </mxCell>
        <mxCell id="DcD1u5HGrlThoaI2c_yx-20" value="nom_esc" style="ellipse;whiteSpace=wrap;html=1;fontStyle=4" vertex="1" parent="1">
          <mxGeometry x="360" y="510" width="60" height="30" as="geometry" />
        </mxCell>
        <mxCell id="DcD1u5HGrlThoaI2c_yx-33" style="edgeStyle=none;rounded=0;orthogonalLoop=1;jettySize=auto;html=1;exitX=0.5;exitY=0;exitDx=0;exitDy=0;entryX=0.5;entryY=1;entryDx=0;entryDy=0;endArrow=none;endFill=0;" edge="1" parent="1" source="DcD1u5HGrlThoaI2c_yx-21" target="DcD1u5HGrlThoaI2c_yx-3">
          <mxGeometry relative="1" as="geometry" />
        </mxCell>
        <mxCell id="DcD1u5HGrlThoaI2c_yx-21" value="sector_empresarial" style="ellipse;whiteSpace=wrap;html=1;" vertex="1" parent="1">
          <mxGeometry x="580" y="510" width="120" height="30" as="geometry" />
        </mxCell>
        <mxCell id="DcD1u5HGrlThoaI2c_yx-32" style="edgeStyle=none;rounded=0;orthogonalLoop=1;jettySize=auto;html=1;exitX=0.5;exitY=0;exitDx=0;exitDy=0;endArrow=none;endFill=0;entryX=0.5;entryY=1;entryDx=0;entryDy=0;" edge="1" parent="1" source="DcD1u5HGrlThoaI2c_yx-22" target="DcD1u5HGrlThoaI2c_yx-3">
          <mxGeometry relative="1" as="geometry" />
        </mxCell>
        <mxCell id="DcD1u5HGrlThoaI2c_yx-22" value="nom_patr" style="ellipse;whiteSpace=wrap;html=1;fontStyle=4" vertex="1" parent="1">
          <mxGeometry x="520" y="510" width="60" height="30" as="geometry" />
        </mxCell>
        <mxCell id="DcD1u5HGrlThoaI2c_yx-27" style="rounded=0;orthogonalLoop=1;jettySize=auto;html=1;exitX=0.5;exitY=0;exitDx=0;exitDy=0;entryX=0.5;entryY=1;entryDx=0;entryDy=0;endArrow=none;endFill=0;" edge="1" parent="1" source="DcD1u5HGrlThoaI2c_yx-23" target="DcD1u5HGrlThoaI2c_yx-1">
          <mxGeometry relative="1" as="geometry" />
        </mxCell>
        <mxCell id="DcD1u5HGrlThoaI2c_yx-23" value="pressupost" style="ellipse;whiteSpace=wrap;html=1;" vertex="1" parent="1">
          <mxGeometry x="280" y="510" width="80" height="30" as="geometry" />
        </mxCell>
        <mxCell id="DcD1u5HGrlThoaI2c_yx-24" value="n_habitants" style="ellipse;whiteSpace=wrap;html=1;" vertex="1" parent="1">
          <mxGeometry x="310" y="140" width="70" height="30" as="geometry" />
        </mxCell>
        <mxCell id="DcD1u5HGrlThoaI2c_yx-25" value="nom_pais" style="ellipse;whiteSpace=wrap;html=1;fontStyle=4" vertex="1" parent="1">
          <mxGeometry x="250" y="140" width="60" height="30" as="geometry" />
        </mxCell>
        <mxCell id="DcD1u5HGrlThoaI2c_yx-42" style="edgeStyle=none;rounded=0;orthogonalLoop=1;jettySize=auto;html=1;exitX=0.5;exitY=0;exitDx=0;exitDy=0;entryX=0;entryY=0;entryDx=0;entryDy=0;endArrow=none;endFill=0;" edge="1" parent="1" source="DcD1u5HGrlThoaI2c_yx-40" target="DcD1u5HGrlThoaI2c_yx-4">
          <mxGeometry relative="1" as="geometry" />
        </mxCell>
        <mxCell id="DcD1u5HGrlThoaI2c_yx-40" value="&lt;div&gt;euros_rebuts&lt;/div&gt;" style="ellipse;whiteSpace=wrap;html=1;" vertex="1" parent="1">
          <mxGeometry x="350" y="380" width="80" height="30" as="geometry" />
        </mxCell>
        <mxCell id="DcD1u5HGrlThoaI2c_yx-45" style="edgeStyle=none;rounded=0;orthogonalLoop=1;jettySize=auto;html=1;exitX=0.5;exitY=0;exitDx=0;exitDy=0;entryX=0.5;entryY=1;entryDx=0;entryDy=0;endArrow=none;endFill=0;" edge="1" parent="1" source="DcD1u5HGrlThoaI2c_yx-44" target="DcD1u5HGrlThoaI2c_yx-1">
          <mxGeometry relative="1" as="geometry" />
        </mxCell>
        <mxCell id="DcD1u5HGrlThoaI2c_yx-44" value="percentatge_patr" style="ellipse;whiteSpace=wrap;html=1;" vertex="1" parent="1">
          <mxGeometry x="140" y="510" width="100" height="30" as="geometry" />
        </mxCell>
        <mxCell id="DcD1u5HGrlThoaI2c_yx-46" value="PILOT" style="rounded=0;whiteSpace=wrap;html=1;" vertex="1" parent="1">
          <mxGeometry x="-140" y="420" width="120" height="60" as="geometry" />
        </mxCell>
        <mxCell id="DcD1u5HGrlThoaI2c_yx-48" style="edgeStyle=none;rounded=0;orthogonalLoop=1;jettySize=auto;html=1;exitX=1;exitY=0.5;exitDx=0;exitDy=0;entryX=0;entryY=0.5;entryDx=0;entryDy=0;endArrow=classic;endFill=1;" edge="1" parent="1" source="DcD1u5HGrlThoaI2c_yx-47" target="DcD1u5HGrlThoaI2c_yx-1">
          <mxGeometry relative="1" as="geometry" />
        </mxCell>
        <mxCell id="DcD1u5HGrlThoaI2c_yx-49" style="edgeStyle=none;rounded=0;orthogonalLoop=1;jettySize=auto;html=1;exitX=0;exitY=0.5;exitDx=0;exitDy=0;entryX=1;entryY=0.5;entryDx=0;entryDy=0;endArrow=doubleBlock;endFill=1;" edge="1" parent="1" source="DcD1u5HGrlThoaI2c_yx-47" target="DcD1u5HGrlThoaI2c_yx-46">
          <mxGeometry relative="1" as="geometry" />
        </mxCell>
        <mxCell id="DcD1u5HGrlThoaI2c_yx-47" value="Contracta" style="rhombus;whiteSpace=wrap;html=1;" vertex="1" parent="1">
          <mxGeometry x="75" y="430" width="80" height="40" as="geometry" />
        </mxCell>
        <mxCell id="DcD1u5HGrlThoaI2c_yx-53" style="edgeStyle=none;rounded=0;orthogonalLoop=1;jettySize=auto;html=1;exitX=0.5;exitY=0;exitDx=0;exitDy=0;entryX=0.5;entryY=1;entryDx=0;entryDy=0;endArrow=none;endFill=0;" edge="1" parent="1" source="DcD1u5HGrlThoaI2c_yx-52" target="DcD1u5HGrlThoaI2c_yx-46">
          <mxGeometry relative="1" as="geometry" />
        </mxCell>
        <mxCell id="DcD1u5HGrlThoaI2c_yx-52" value="codi_pilot" style="ellipse;whiteSpace=wrap;html=1;fontStyle=4" vertex="1" parent="1">
          <mxGeometry x="-110" y="510" width="60" height="30" as="geometry" />
        </mxCell>
        <mxCell id="DcD1u5HGrlThoaI2c_yx-66" style="edgeStyle=none;rounded=0;orthogonalLoop=1;jettySize=auto;html=1;exitX=0.5;exitY=0;exitDx=0;exitDy=0;entryX=0.5;entryY=1;entryDx=0;entryDy=0;endArrow=none;endFill=0;" edge="1" parent="1" source="DcD1u5HGrlThoaI2c_yx-54" target="DcD1u5HGrlThoaI2c_yx-46">
          <mxGeometry relative="1" as="geometry" />
        </mxCell>
        <mxCell id="DcD1u5HGrlThoaI2c_yx-54" value="nom" style="ellipse;whiteSpace=wrap;html=1;" vertex="1" parent="1">
          <mxGeometry x="-50" y="510" width="40" height="30" as="geometry" />
        </mxCell>
        <mxCell id="DcD1u5HGrlThoaI2c_yx-69" style="edgeStyle=none;rounded=0;orthogonalLoop=1;jettySize=auto;html=1;exitX=0.5;exitY=1;exitDx=0;exitDy=0;endArrow=none;endFill=0;entryX=0.5;entryY=0;entryDx=0;entryDy=0;" edge="1" parent="1" source="DcD1u5HGrlThoaI2c_yx-60" target="DcD1u5HGrlThoaI2c_yx-46">
          <mxGeometry relative="1" as="geometry">
            <mxPoint x="-140" y="450" as="targetPoint" />
          </mxGeometry>
        </mxCell>
        <mxCell id="DcD1u5HGrlThoaI2c_yx-60" value="dorsal" style="ellipse;whiteSpace=wrap;html=1;" vertex="1" parent="1">
          <mxGeometry x="-60" y="360" width="40" height="30" as="geometry" />
        </mxCell>
        <mxCell id="DcD1u5HGrlThoaI2c_yx-68" style="edgeStyle=none;rounded=0;orthogonalLoop=1;jettySize=auto;html=1;exitX=0.5;exitY=1;exitDx=0;exitDy=0;endArrow=none;endFill=0;entryX=0.5;entryY=0;entryDx=0;entryDy=0;" edge="1" parent="1" source="DcD1u5HGrlThoaI2c_yx-61" target="DcD1u5HGrlThoaI2c_yx-46">
          <mxGeometry relative="1" as="geometry">
            <mxPoint x="-140" y="450" as="targetPoint" />
          </mxGeometry>
        </mxCell>
        <mxCell id="DcD1u5HGrlThoaI2c_yx-61" value="foto" style="ellipse;whiteSpace=wrap;html=1;" vertex="1" parent="1">
          <mxGeometry x="-100" y="360" width="40" height="30" as="geometry" />
        </mxCell>
        <mxCell id="DcD1u5HGrlThoaI2c_yx-67" style="edgeStyle=none;rounded=0;orthogonalLoop=1;jettySize=auto;html=1;exitX=0.5;exitY=1;exitDx=0;exitDy=0;entryX=0.5;entryY=0;entryDx=0;entryDy=0;endArrow=none;endFill=0;" edge="1" parent="1" source="DcD1u5HGrlThoaI2c_yx-62" target="DcD1u5HGrlThoaI2c_yx-46">
          <mxGeometry relative="1" as="geometry" />
        </mxCell>
        <mxCell id="DcD1u5HGrlThoaI2c_yx-62" value="data_naix" style="ellipse;whiteSpace=wrap;html=1;" vertex="1" parent="1">
          <mxGeometry x="-160" y="360" width="60" height="30" as="geometry" />
        </mxCell>
        <mxCell id="DcD1u5HGrlThoaI2c_yx-65" style="edgeStyle=none;rounded=0;orthogonalLoop=1;jettySize=auto;html=1;exitX=0.5;exitY=0;exitDx=0;exitDy=0;endArrow=none;endFill=0;" edge="1" parent="1" source="DcD1u5HGrlThoaI2c_yx-63">
          <mxGeometry relative="1" as="geometry">
            <mxPoint x="-80" y="480" as="targetPoint" />
          </mxGeometry>
        </mxCell>
        <mxCell id="DcD1u5HGrlThoaI2c_yx-63" value="sou" style="ellipse;whiteSpace=wrap;html=1;" vertex="1" parent="1">
          <mxGeometry x="-150" y="510" width="40" height="30" as="geometry" />
        </mxCell>
        <mxCell id="DcD1u5HGrlThoaI2c_yx-70" value="N:1" style="text;html=1;align=center;verticalAlign=middle;resizable=0;points=[];autosize=1;strokeColor=none;fillColor=none;" vertex="1" parent="1">
          <mxGeometry x="50" y="410" width="30" height="20" as="geometry" />
        </mxCell>
        <mxCell id="DcD1u5HGrlThoaI2c_yx-71" value="(1:1)" style="text;html=1;align=center;verticalAlign=middle;resizable=0;points=[];autosize=1;strokeColor=none;fillColor=none;" vertex="1" parent="1">
          <mxGeometry x="210" y="450" width="40" height="20" as="geometry" />
        </mxCell>
        <mxCell id="DcD1u5HGrlThoaI2c_yx-72" value="(1:N)" style="text;html=1;align=center;verticalAlign=middle;resizable=0;points=[];autosize=1;strokeColor=none;fillColor=none;" vertex="1" parent="1">
          <mxGeometry x="-20" y="450" width="40" height="20" as="geometry" />
        </mxCell>
        <mxCell id="DcD1u5HGrlThoaI2c_yx-74" value="&lt;div&gt;CIRCUIT&lt;/div&gt;" style="rounded=0;whiteSpace=wrap;html=1;" vertex="1" parent="1">
          <mxGeometry x="-480" y="200" width="120" height="60" as="geometry" />
        </mxCell>
        <mxCell id="DcD1u5HGrlThoaI2c_yx-78" style="edgeStyle=none;rounded=0;orthogonalLoop=1;jettySize=auto;html=1;exitX=0.5;exitY=1;exitDx=0;exitDy=0;entryX=0.5;entryY=0;entryDx=0;entryDy=0;endArrow=none;endFill=0;" edge="1" parent="1" source="DcD1u5HGrlThoaI2c_yx-77">
          <mxGeometry relative="1" as="geometry">
            <mxPoint x="-420" y="200" as="targetPoint" />
          </mxGeometry>
        </mxCell>
        <mxCell id="DcD1u5HGrlThoaI2c_yx-77" value="&lt;div&gt;nom&lt;/div&gt;" style="ellipse;whiteSpace=wrap;html=1;fontStyle=4" vertex="1" parent="1">
          <mxGeometry x="-440" y="140" width="40" height="30" as="geometry" />
        </mxCell>
        <mxCell id="DcD1u5HGrlThoaI2c_yx-94" style="edgeStyle=none;rounded=0;orthogonalLoop=1;jettySize=auto;html=1;exitX=0.5;exitY=1;exitDx=0;exitDy=0;entryX=0.5;entryY=0;entryDx=0;entryDy=0;endArrow=none;endFill=0;" edge="1" parent="1" source="DcD1u5HGrlThoaI2c_yx-79" target="DcD1u5HGrlThoaI2c_yx-92">
          <mxGeometry relative="1" as="geometry" />
        </mxCell>
        <mxCell id="DcD1u5HGrlThoaI2c_yx-95" style="edgeStyle=none;rounded=0;orthogonalLoop=1;jettySize=auto;html=1;exitX=0.5;exitY=1;exitDx=0;exitDy=0;entryX=0.5;entryY=0;entryDx=0;entryDy=0;endArrow=none;endFill=0;" edge="1" parent="1" source="DcD1u5HGrlThoaI2c_yx-79" target="DcD1u5HGrlThoaI2c_yx-97">
          <mxGeometry relative="1" as="geometry">
            <mxPoint x="20" y="290" as="targetPoint" />
          </mxGeometry>
        </mxCell>
        <mxCell id="DcD1u5HGrlThoaI2c_yx-96" style="edgeStyle=none;rounded=0;orthogonalLoop=1;jettySize=auto;html=1;exitX=0.5;exitY=1;exitDx=0;exitDy=0;entryX=0.5;entryY=0;entryDx=0;entryDy=0;endArrow=none;endFill=0;" edge="1" parent="1" source="DcD1u5HGrlThoaI2c_yx-79" target="DcD1u5HGrlThoaI2c_yx-93">
          <mxGeometry relative="1" as="geometry" />
        </mxCell>
        <mxCell id="DcD1u5HGrlThoaI2c_yx-79" value="&lt;div&gt;CIUTAT&lt;/div&gt;" style="rounded=0;whiteSpace=wrap;html=1;absoluteArcSize=0;strokeColor=default;shadow=0;sketch=0;noLabel=0;portConstraintRotation=0;snapToPoint=0;dropTarget=0;backgroundOutline=0;recursiveResize=1;" vertex="1" parent="1">
          <mxGeometry x="-47.5" y="190" width="135" height="80" as="geometry" />
        </mxCell>
        <mxCell id="DcD1u5HGrlThoaI2c_yx-85" style="edgeStyle=none;rounded=0;orthogonalLoop=1;jettySize=auto;html=1;exitX=0;exitY=0.5;exitDx=0;exitDy=0;entryX=1;entryY=0.5;entryDx=0;entryDy=0;endArrow=doubleBlock;endFill=1;" edge="1" parent="1" source="DcD1u5HGrlThoaI2c_yx-81" target="DcD1u5HGrlThoaI2c_yx-79">
          <mxGeometry relative="1" as="geometry" />
        </mxCell>
        <mxCell id="DcD1u5HGrlThoaI2c_yx-86" style="edgeStyle=none;rounded=0;orthogonalLoop=1;jettySize=auto;html=1;exitX=1;exitY=0.5;exitDx=0;exitDy=0;endArrow=classic;endFill=1;" edge="1" parent="1" source="DcD1u5HGrlThoaI2c_yx-81" target="DcD1u5HGrlThoaI2c_yx-2">
          <mxGeometry relative="1" as="geometry" />
        </mxCell>
        <mxCell id="DcD1u5HGrlThoaI2c_yx-81" value="Situat" style="rhombus;whiteSpace=wrap;html=2;strokeColor=default;sketch=0;rounded=0;shadow=0;perimeterSpacing=0;double=1;" vertex="1" parent="1">
          <mxGeometry x="130" y="210" width="80" height="40" as="geometry" />
        </mxCell>
        <mxCell id="DcD1u5HGrlThoaI2c_yx-83" style="edgeStyle=none;rounded=0;orthogonalLoop=1;jettySize=auto;html=1;exitX=0;exitY=0.5;exitDx=0;exitDy=0;entryX=1;entryY=0.5;entryDx=0;entryDy=0;endArrow=classic;endFill=1;" edge="1" parent="1" source="DcD1u5HGrlThoaI2c_yx-82">
          <mxGeometry relative="1" as="geometry">
            <mxPoint x="-360" y="230" as="targetPoint" />
          </mxGeometry>
        </mxCell>
        <mxCell id="DcD1u5HGrlThoaI2c_yx-84" style="edgeStyle=none;rounded=0;orthogonalLoop=1;jettySize=auto;html=1;exitX=1;exitY=0.5;exitDx=0;exitDy=0;endArrow=classic;endFill=1;" edge="1" parent="1" source="DcD1u5HGrlThoaI2c_yx-82" target="DcD1u5HGrlThoaI2c_yx-79">
          <mxGeometry relative="1" as="geometry" />
        </mxCell>
        <mxCell id="DcD1u5HGrlThoaI2c_yx-82" value="Conté" style="rhombus;whiteSpace=wrap;html=1;" vertex="1" parent="1">
          <mxGeometry x="-240" y="210" width="80" height="40" as="geometry" />
        </mxCell>
        <mxCell id="DcD1u5HGrlThoaI2c_yx-89" style="edgeStyle=none;rounded=0;orthogonalLoop=1;jettySize=auto;html=1;exitX=0.5;exitY=1;exitDx=0;exitDy=0;entryX=0.5;entryY=0;entryDx=0;entryDy=0;endArrow=none;endFill=0;" edge="1" parent="1" source="DcD1u5HGrlThoaI2c_yx-87">
          <mxGeometry relative="1" as="geometry">
            <mxPoint x="-420" y="200" as="targetPoint" />
          </mxGeometry>
        </mxCell>
        <mxCell id="DcD1u5HGrlThoaI2c_yx-87" value="km_llargada" style="ellipse;whiteSpace=wrap;html=1;" vertex="1" parent="1">
          <mxGeometry x="-520" y="140" width="80" height="30" as="geometry" />
        </mxCell>
        <mxCell id="DcD1u5HGrlThoaI2c_yx-90" style="edgeStyle=none;rounded=0;orthogonalLoop=1;jettySize=auto;html=1;exitX=0.5;exitY=1;exitDx=0;exitDy=0;endArrow=none;endFill=0;entryX=0.5;entryY=0;entryDx=0;entryDy=0;" edge="1" parent="1" source="DcD1u5HGrlThoaI2c_yx-88">
          <mxGeometry relative="1" as="geometry">
            <mxPoint x="-420" y="200" as="targetPoint" />
          </mxGeometry>
        </mxCell>
        <mxCell id="DcD1u5HGrlThoaI2c_yx-88" value="any_construcció" style="ellipse;whiteSpace=wrap;html=1;" vertex="1" parent="1">
          <mxGeometry x="-400" y="140" width="100" height="30" as="geometry" />
        </mxCell>
        <mxCell id="DcD1u5HGrlThoaI2c_yx-92" value="nom" style="ellipse;whiteSpace=wrap;html=1;fontStyle=4" vertex="1" parent="1">
          <mxGeometry x="-55" y="290" width="40" height="30" as="geometry" />
        </mxCell>
        <mxCell id="DcD1u5HGrlThoaI2c_yx-93" value="aeroport" style="ellipse;whiteSpace=wrap;html=1;fontStyle=4" vertex="1" parent="1">
          <mxGeometry x="55" y="290" width="50" height="30" as="geometry" />
        </mxCell>
        <mxCell id="DcD1u5HGrlThoaI2c_yx-97" value="n_habitants" style="ellipse;whiteSpace=wrap;html=1;fontStyle=4" vertex="1" parent="1">
          <mxGeometry x="-15" y="290" width="70" height="30" as="geometry" />
        </mxCell>
        <mxCell id="DcD1u5HGrlThoaI2c_yx-99" value="&lt;div&gt;CIUTAT&lt;/div&gt;" style="rounded=0;whiteSpace=wrap;html=1;absoluteArcSize=0;strokeColor=default;shadow=0;sketch=0;noLabel=0;portConstraintRotation=0;snapToPoint=0;dropTarget=0;backgroundOutline=0;recursiveResize=1;" vertex="1" parent="1">
          <mxGeometry x="-40" y="200" width="120" height="60" as="geometry" />
        </mxCell>
        <mxCell id="DcD1u5HGrlThoaI2c_yx-115" value="(1:1)" style="text;html=1;align=center;verticalAlign=middle;resizable=0;points=[];autosize=1;strokeColor=none;fillColor=none;" vertex="1" parent="1">
          <mxGeometry x="210" y="230" width="40" height="20" as="geometry" />
        </mxCell>
        <mxCell id="DcD1u5HGrlThoaI2c_yx-116" value="N:1" style="text;html=1;align=center;verticalAlign=middle;resizable=0;points=[];autosize=1;strokeColor=none;fillColor=none;" vertex="1" parent="1">
          <mxGeometry x="155" y="190" width="30" height="20" as="geometry" />
        </mxCell>
        <mxCell id="DcD1u5HGrlThoaI2c_yx-117" value="(1:N)" style="text;html=1;align=center;verticalAlign=middle;resizable=0;points=[];autosize=1;strokeColor=none;fillColor=none;" vertex="1" parent="1">
          <mxGeometry x="87.5" y="230" width="40" height="20" as="geometry" />
        </mxCell>
        <mxCell id="DcD1u5HGrlThoaI2c_yx-119" value="&lt;font face=&quot;Helvetica&quot;&gt;CARRERA&lt;/font&gt;" style="rounded=0;whiteSpace=wrap;html=1;shadow=0;glass=0;sketch=0;fontFamily=Courier New;strokeColor=default;strokeWidth=1;gradientColor=none;" vertex="1" parent="1">
          <mxGeometry x="-480" y="420" width="120" height="60" as="geometry" />
        </mxCell>
        <mxCell id="DcD1u5HGrlThoaI2c_yx-121" style="edgeStyle=none;rounded=0;orthogonalLoop=1;jettySize=auto;html=1;exitX=1;exitY=0.5;exitDx=0;exitDy=0;entryX=0;entryY=0.5;entryDx=0;entryDy=0;fontFamily=Helvetica;endArrow=doubleBlock;endFill=1;" edge="1" parent="1" source="DcD1u5HGrlThoaI2c_yx-120" target="DcD1u5HGrlThoaI2c_yx-46">
          <mxGeometry relative="1" as="geometry" />
        </mxCell>
        <mxCell id="DcD1u5HGrlThoaI2c_yx-122" style="edgeStyle=none;rounded=0;orthogonalLoop=1;jettySize=auto;html=1;exitX=0;exitY=0.5;exitDx=0;exitDy=0;fontFamily=Helvetica;endArrow=doubleBlock;endFill=1;" edge="1" parent="1" source="DcD1u5HGrlThoaI2c_yx-120" target="DcD1u5HGrlThoaI2c_yx-119">
          <mxGeometry relative="1" as="geometry" />
        </mxCell>
        <mxCell id="DcD1u5HGrlThoaI2c_yx-140" style="edgeStyle=none;rounded=0;orthogonalLoop=1;jettySize=auto;html=1;entryX=0.5;entryY=1;entryDx=0;entryDy=0;fontFamily=Helvetica;endArrow=doubleBlock;endFill=1;exitX=0.5;exitY=0;exitDx=0;exitDy=0;" edge="1" parent="1" source="DcD1u5HGrlThoaI2c_yx-145" target="DcD1u5HGrlThoaI2c_yx-74">
          <mxGeometry relative="1" as="geometry">
            <mxPoint x="-350" y="370" as="sourcePoint" />
          </mxGeometry>
        </mxCell>
        <mxCell id="DcD1u5HGrlThoaI2c_yx-142" style="edgeStyle=none;rounded=0;orthogonalLoop=1;jettySize=auto;html=1;exitX=1;exitY=1;exitDx=0;exitDy=0;entryX=0.5;entryY=0;entryDx=0;entryDy=0;fontFamily=Helvetica;endArrow=none;endFill=0;" edge="1" parent="1" source="DcD1u5HGrlThoaI2c_yx-120" target="DcD1u5HGrlThoaI2c_yx-141">
          <mxGeometry relative="1" as="geometry" />
        </mxCell>
        <mxCell id="DcD1u5HGrlThoaI2c_yx-120" value="Participa" style="rhombus;whiteSpace=wrap;html=1;" vertex="1" parent="1">
          <mxGeometry x="-290" y="430" width="80" height="40" as="geometry" />
        </mxCell>
        <mxCell id="DcD1u5HGrlThoaI2c_yx-137" style="edgeStyle=none;rounded=0;orthogonalLoop=1;jettySize=auto;html=1;exitX=1;exitY=0.5;exitDx=0;exitDy=0;fontFamily=Helvetica;endArrow=none;endFill=0;entryX=0;entryY=0.5;entryDx=0;entryDy=0;" edge="1" parent="1" source="DcD1u5HGrlThoaI2c_yx-131" target="DcD1u5HGrlThoaI2c_yx-148">
          <mxGeometry relative="1" as="geometry" />
        </mxCell>
        <mxCell id="DcD1u5HGrlThoaI2c_yx-131" value="data" style="ellipse;whiteSpace=wrap;html=1;fontStyle=0;horizontal=1;" vertex="1" parent="1">
          <mxGeometry x="-575" y="445" width="40" height="30" as="geometry" />
        </mxCell>
        <mxCell id="DcD1u5HGrlThoaI2c_yx-133" value="RECORD" style="rounded=0;whiteSpace=wrap;html=1;shadow=0;glass=0;sketch=0;fontFamily=Helvetica;strokeColor=default;strokeWidth=1;gradientColor=none;" vertex="1" parent="1">
          <mxGeometry x="-200" y="260" width="120" height="60" as="geometry" />
        </mxCell>
        <mxCell id="DcD1u5HGrlThoaI2c_yx-136" style="edgeStyle=none;rounded=0;orthogonalLoop=1;jettySize=auto;html=1;exitX=1;exitY=1;exitDx=0;exitDy=0;entryX=0;entryY=0.25;entryDx=0;entryDy=0;fontFamily=Helvetica;endArrow=classic;endFill=1;" edge="1" parent="1" source="DcD1u5HGrlThoaI2c_yx-134" target="DcD1u5HGrlThoaI2c_yx-46">
          <mxGeometry relative="1" as="geometry" />
        </mxCell>
        <mxCell id="DcD1u5HGrlThoaI2c_yx-138" style="edgeStyle=none;rounded=0;orthogonalLoop=1;jettySize=auto;html=1;exitX=1;exitY=0;exitDx=0;exitDy=0;entryX=0;entryY=0.75;entryDx=0;entryDy=0;fontFamily=Helvetica;endArrow=doubleBlock;endFill=1;" edge="1" parent="1" source="DcD1u5HGrlThoaI2c_yx-134" target="DcD1u5HGrlThoaI2c_yx-133">
          <mxGeometry relative="1" as="geometry" />
        </mxCell>
        <mxCell id="DcD1u5HGrlThoaI2c_yx-139" style="edgeStyle=none;rounded=0;orthogonalLoop=1;jettySize=auto;html=1;exitX=0;exitY=0;exitDx=0;exitDy=0;entryX=0.75;entryY=1;entryDx=0;entryDy=0;fontFamily=Helvetica;endArrow=doubleBlock;endFill=1;" edge="1" parent="1" source="DcD1u5HGrlThoaI2c_yx-134" target="DcD1u5HGrlThoaI2c_yx-74">
          <mxGeometry relative="1" as="geometry" />
        </mxCell>
        <mxCell id="DcD1u5HGrlThoaI2c_yx-134" value="Obstenta" style="rhombus;whiteSpace=wrap;html=1;" vertex="1" parent="1">
          <mxGeometry x="-290" y="315" width="80" height="40" as="geometry" />
        </mxCell>
        <mxCell id="DcD1u5HGrlThoaI2c_yx-141" value="posicio" style="ellipse;whiteSpace=wrap;html=1;fontStyle=0" vertex="1" parent="1">
          <mxGeometry x="-245" y="480" width="50" height="30" as="geometry" />
        </mxCell>
        <mxCell id="DcD1u5HGrlThoaI2c_yx-143" value="id_carrera" style="ellipse;whiteSpace=wrap;html=1;fontStyle=4" vertex="1" parent="1">
          <mxGeometry x="-590" y="320" width="70" height="30" as="geometry" />
        </mxCell>
        <mxCell id="DcD1u5HGrlThoaI2c_yx-146" style="edgeStyle=none;rounded=0;orthogonalLoop=1;jettySize=auto;html=1;exitX=0.5;exitY=1;exitDx=0;exitDy=0;entryX=0.5;entryY=0;entryDx=0;entryDy=0;fontFamily=Helvetica;endArrow=doubleBlock;endFill=1;" edge="1" parent="1" source="DcD1u5HGrlThoaI2c_yx-145" target="DcD1u5HGrlThoaI2c_yx-119">
          <mxGeometry relative="1" as="geometry" />
        </mxCell>
        <mxCell id="DcD1u5HGrlThoaI2c_yx-145" value="Organitza" style="rhombus;whiteSpace=wrap;html=1;" vertex="1" parent="1">
          <mxGeometry x="-460" y="320" width="80" height="40" as="geometry" />
        </mxCell>
        <mxCell id="DcD1u5HGrlThoaI2c_yx-148" value="&lt;div&gt;CIUTAT&lt;/div&gt;" style="rounded=0;whiteSpace=wrap;html=1;absoluteArcSize=0;strokeColor=default;shadow=0;sketch=0;noLabel=0;portConstraintRotation=0;snapToPoint=0;dropTarget=0;backgroundOutline=0;recursiveResize=1;" vertex="1" parent="1">
          <mxGeometry x="-495" y="420" width="135" height="80" as="geometry" />
        </mxCell>
        <mxCell id="DcD1u5HGrlThoaI2c_yx-149" value="&lt;font face=&quot;Helvetica&quot;&gt;CARRERA&lt;/font&gt;" style="rounded=0;whiteSpace=wrap;html=1;shadow=0;glass=0;sketch=0;fontFamily=Courier New;strokeColor=default;strokeWidth=1;gradientColor=none;" vertex="1" parent="1">
          <mxGeometry x="-487.5" y="430" width="120" height="60" as="geometry" />
        </mxCell>
        <mxCell id="DcD1u5HGrlThoaI2c_yx-157" value="" style="endArrow=none;dashed=1;html=1;rounded=0;fontFamily=Helvetica;" edge="1" parent="1">
          <mxGeometry width="50" height="50" relative="1" as="geometry">
            <mxPoint x="-570" y="469.31" as="sourcePoint" />
            <mxPoint x="-540" y="469.31" as="targetPoint" />
          </mxGeometry>
        </mxCell>
        <mxCell id="DcD1u5HGrlThoaI2c_yx-158" value="" style="endArrow=none;dashed=1;html=1;rounded=0;fontFamily=Helvetica;" edge="1" parent="1">
          <mxGeometry width="50" height="50" relative="1" as="geometry">
            <mxPoint x="-50" y="304.66" as="sourcePoint" />
            <mxPoint x="-20" y="304.66" as="targetPoint" />
          </mxGeometry>
        </mxCell>
      </root>
    </mxGraphModel>
  </diagram>
</mxfile>
